<?xml version="1.0" encoding="UTF-8" standalone="no"?>
<svg
  height="111mm"
  id="svg53"
  inkscape:version="0.92.4 (5da689c313, 2019-01-14)"
  sodipodi:docname="profilePhoto.svg"
  style="clip-rule:evenodd;fill-rule:evenodd;image-rendering:optimizeQuality;shape-rendering:geometricPrecision;text-rendering:geometricPrecision"
  version="1.1"
  viewBox="0 0 11300 11100"
  width="113mm"
  xml:space="preserve"
  xmlns="http://www.w3.org/2000/svg"
  xmlns:cc="http://creativecommons.org/ns#"
  xmlns:dc="http://purl.org/dc/elements/1.1/"
  xmlns:inkscape="http://www.inkscape.org/namespaces/inkscape"
  xmlns:rdf="http://www.w3.org/1999/02/22-rdf-syntax-ns#"
  xmlns:sodipodi="http://sodipodi.sourceforge.net/DTD/sodipodi-0.dtd"
  xmlns:svg="http://www.w3.org/2000/svg"><metadata
   id="metadata57"><rdf:RDF><cc:Work
       rdf:about=""><dc:format>image/svg+xml</dc:format><dc:type
  rdf:resource="http://purl.org/dc/dcmitype/StillImage"/><dc:title></dc:title></cc:Work></rdf:RDF></metadata>
  <sodipodi:namedview
    bordercolor="#666666"
    borderopacity="1"
    gridtolerance="10"
    guidetolerance="10"
    id="namedview55"
    inkscape:current-layer="svg53"
    inkscape:cx="632.63712"
    inkscape:cy="440.54778"
    inkscape:pageopacity="0"
    inkscape:pageshadow="2"
    inkscape:window-height="1001"
    inkscape:window-maximized="1"
    inkscape:window-width="1920"
    inkscape:window-x="-9"
    inkscape:window-y="-9"
    inkscape:zoom="0.59468254"
    objecttolerance="10"
    pagecolor="#ffffff"
    showgrid="false"/>
  <defs
    id="defs9">
  <style
    id="style2"
    type="text/css">
    .fil2 {
      fill: #1A1617
    }

    .fil6 {
      fill: #383032
    }

    .fil3 {
      fill: #3D3D3D
    }

    .fil5 {
      fill: #E6C6AA
    }

    .fil1 {
      fill: #E6E6E6
    }

    .fil8 {
      fill: #F23034
    }

    .fil4 {
      fill: #F6D5B8
    }

    .fil7 {
      fill: white
    }

    .fil0 {
      fill: url(#a)
    }
  </style>
    <linearGradient
      gradientUnits="userSpaceOnUse"
      id="a"
      x1="15728"
      x2="15858"
      y1="3765.8"
      y2="17338">
   <stop
     id="stop4"
     offset="0"
     stop-color="#fff"/>
      <stop
        id="stop6"
        offset="1"
        stop-color="#EB9494"/>
  </linearGradient>
 </defs>


  <circle
    class="fil1"
    cx="5661.5591"
    cy="5606.0845"
    id="circle31"
    r="5490"
    style="fill:#e6e6e6"/>
  <path
    class="fil2"
    d="m 7892.5593,3177.0852 c 76,135 71,348 4,613 -79,312 -274,536 -467,558 -98,451 -291,849 -547,1151 338,268 619,569 818,918 501,160 992,427 1487.0005,651 125,57 101,37 157,166 227.9999,528 389.9999,1066 588.9999,1598 -986.9999,1274.9998 -2532.0004,2095.9998 -4270.0004,2095.9998 -1740,0 -3288,-824 -4275,-2103.9998 230,-490 366,-1079 610,-1595 67,-140 45,-118 184,-179 477,-208 927,-445 1445,-608 229,-392 519,-701 878,-914 -269,-305 -469,-712 -571,-1179 -204,4 -420,-227 -504,-559 -67,-265 -71,-478 4,-613 40,-70 88,-105 139,-116 -300,-1070 54,-1813 814,-2259 1061,-807.0003878 2414,-737.000388 3229,391 382,529 444,1314 276,1984 z"
    id="path33"
    inkscape:connector-curvature="0"
    style="fill:#1a1617"/>
  <path
    class="fil3"
    d="m 5641.5593,276.08481 c -430,49 -862,227.00039 -1254,526.00039 -760,446 -1114,1189 -814,2259 117,-25 248,80 311,199 14,28 28,72 23,103 6,141 24,282 55,412 10,42 88,86 78,22 -37,-234 -8,-509 -47,-730 l -36,-197 c 133,-528 397,-976 740,-1273 309,339 673,620 1153,671 828,89 1304,358 1551,799 -39,221 -11,496 -47,730 -10,64 68,20 78,-22 31,-130 22,-270 28,-411 -14,-50 -15,-108 12,-151 95,-153 304,-244 420,-36 168,-670 106,-1455 -276,-1984 -399,-552 -927,-851.00039 -1487,-917.00039 z"
    id="path35"
    inkscape:connector-curvature="0"
    style="fill:#3d3d3d"/>
  <path
    class="fil4"
    d="m 3573.5593,3061.0852 z m -75,37 c -23,19 -44,45 -64,79 -75,135 -71,348 -4,613 58,226 176,406 311,496 62,42 128,65 193,63 102,467 302,874 571,1179 -33,96 -64,227 -92,358 359,556 789,880 1250,880 486,0 936,-358 1306,-967 -33,-134 -65,-242 -87,-300 256,-302 449,-700 547,-1151 53,-6 106,-28 157,-62 135,-90 253,-270 310,-496 67,-265 72,-478 -4,-613 -19,-34 -40,-60 -63,-79 -118,-98 -278,-13 -357,115 -27,43 -26,101 -12,151 -6,141 3,281 -28,411 -10,42 -88,86 -78,22 36,-234 8,-509 47,-730 -247,-441 -723,-710 -1551,-799 -480,-51 -844,-332 -1153,-671 -343,297 -607,745 -740,1273 l 36,197 c 39,221 10,496 47,730 10,64 -68,20 -78,-22 -31,-130 -49,-271 -55,-412 5,-31 -9,-75 -23,-103 -63,-119 -194,-224 -311,-199 -26,5 -51,17 -75,37 z"
    id="path37"
    inkscape:connector-curvature="0"
    style="fill:#f6d5b8"/>
  <path
    class="fil5"
    d="m 3918.5593,4241.0852 c -40,-183 -62,-368 -66,-554 -3,-119 1,-239 12,-358 -10,-14 -20,-27 -32,-40 -39,-41 -109,-94 -172,-88 -47,3 -78,41 -98,76 -79,141 -26,378 17,522 37,123 102,251 198,345 37,37 87,75 141,97 z m 3515,0 c 40,-183 62,-368 66,-554 4,-119 -1,-239 -12,-358 10,-14 20,-27 32,-40 39,-41 109,-94 172,-88 47,3 78,41 98,76 79,141 26,378 -17,522 -36,123 -102,251 -198,345 -37,37 -87,75 -141,97 z"
    id="path39"
    inkscape:connector-curvature="0"
    style="fill:#e6c6aa"/>
  <path
    class="fil6"
    d="m 4505.5593,5533.0852 c -678,1903 770,3688 1100,5394.9998 -54,-1 -108,-2 -162,-5 l -2186,-2742.9998 624,-489 c -136,-190 -389,-281 -501,-477 105,-248 97,-530 247,-767 229,-392 519,-701 878,-914 z m 2493,62 c 287,243 526,514 702,822 26,8 51,17 76,25 l 3,5 c 150,237 142,519 247,767 -112,196 -364,287 -501,477 l 624,489 -2182,2739.9998 c -55,3 -110,5 -166,6 331,-1705.9998 1778,-3490.9998 1100,-5392.9998 33,20 65,40 97,62 z"
    id="path41"
    inkscape:connector-curvature="0"
    style="fill:#383032"/>
  <path
    class="fil5"
    d="m 6882.5593,5499.0852 c 5,-6 -474,540 -1196,540 -503,0 -1178,-508 -1178,-507 l -21,89 c 128,149 272,268 430,363 234,140 499,227 787,275 277,46 576,56 888,42 133,-139 259,-308 377,-502 -32,-133 -65,-242 -87,-300 z"
    id="path43"
    inkscape:connector-curvature="0"
    style="fill:#e6c6aa"/>
  <path
    class="fil7"
    d="m 5663.5593,6766.0852 c -461,0 -891,-324 -1250,-880 28,-131 59,-262 92,-358 -439,1232 13,2414 476,3558 253,624.9998 509,1237.9998 625,1841.9998 h 57 c 46,0 92,-1 137,-2 108,-557 335,-1124 568,-1698.9998 481,-1188 990,-2417 533,-3699 24,15 47,29 71,44 -30,-24 -60,-49 -90,-73 22,58 54,166 87,300 -118,194 -244,363 -377,502 -284,299 -598,465 -929,465 z"
    id="path45"
    inkscape:connector-curvature="0"
    style="fill:#ffffff"/>
  <path
    class="fil8"
    d="m 5669.5593,6869.0852 -579,923 195,281 -304,1016 c 252,623.9998 508,1235.9998 624,1838.9998 h 58 c 46,0 92,-1 138,-2 108,-556 334,-1121 567,-1695.9998 31,-84 -330,-1144 -330,-1144 l 195,-343 z"
    id="path47"
    inkscape:connector-curvature="0"
    style="fill:#f23034"/>
  <path
    class="fil1"
    d="m 5669.5593,6889.0852 -902,1224 -384,-890 c 108,636 354,1260 602,1873 l 300,-1003 -195,-281 z m 908,1242 -908,-1242 564,874 -195,343 c 0,0 317,931 331,1117 273,-671 553,-1356 663,-2056 z"
    id="path49"
    inkscape:connector-curvature="0"
    style="fill:#e6e6e6"/>
  <path
    class="fil5"
    d="m 5850.5593,2268.0852 c -480,-51 -844,-332 -1153,-671 -343,297 -607,745 -740,1273 245,-376 404,-858 735,-1127 447,918 2007,580 2709,1324 -247,-441 -723,-710 -1551,-799 z"
    id="path51"
    inkscape:connector-curvature="0"
    style="fill:#e6c6aa"/>
</svg>
